<svg width="263" height="72" viewBox="0 0 263 72" fill="none" xmlns="http://www.w3.org/2000/svg">
<path d="M80.8751 53.336C78.5391 53.336 76.4271 52.936 74.5391 52.136C72.6831 51.336 71.2111 50.184 70.1231 48.68C69.0351 47.176 68.4751 45.4 68.4431 43.352H75.6431C75.7391 44.728 76.2191 45.816 77.0831 46.616C77.9791 47.416 79.1951 47.816 80.7311 47.816C82.2991 47.816 83.5311 47.448 84.4271 46.712C85.3231 45.944 85.7711 44.952 85.7711 43.736C85.7711 42.744 85.4671 41.928 84.8591 41.288C84.2511 40.648 83.4831 40.152 82.5551 39.8C81.6591 39.416 80.4111 39 78.8111 38.552C76.6351 37.912 74.8591 37.288 73.4831 36.68C72.1391 36.04 70.9711 35.096 69.9791 33.848C69.0191 32.568 68.5391 30.872 68.5391 28.76C68.5391 26.776 69.0351 25.048 70.0271 23.576C71.0191 22.104 72.4111 20.984 74.2031 20.216C75.9951 19.416 78.0431 19.016 80.3471 19.016C83.8031 19.016 86.6031 19.864 88.7471 21.56C90.9231 23.224 92.1231 25.56 92.3471 28.568H84.9551C84.8911 27.416 84.3951 26.472 83.4671 25.736C82.5711 24.968 81.3711 24.584 79.8671 24.584C78.5551 24.584 77.4991 24.92 76.6991 25.592C75.9311 26.264 75.5471 27.24 75.5471 28.52C75.5471 29.416 75.8351 30.168 76.4111 30.776C77.0191 31.352 77.7551 31.832 78.6191 32.216C79.5151 32.568 80.7631 32.984 82.3631 33.464C84.5391 34.104 86.3151 34.744 87.6911 35.384C89.0671 36.024 90.2511 36.984 91.2431 38.264C92.2351 39.544 92.7311 41.224 92.7311 43.304C92.7311 45.096 92.2671 46.76 91.3391 48.296C90.4111 49.832 89.0511 51.064 87.2591 51.992C85.4671 52.888 83.3391 53.336 80.8751 53.336ZM96.9251 36.2C96.9251 32.904 97.6611 29.96 99.1331 27.368C100.637 24.744 102.669 22.712 105.229 21.272C107.821 19.8 110.717 19.064 113.917 19.064C117.661 19.064 120.941 20.024 123.757 21.944C126.573 23.864 128.541 26.52 129.661 29.912H121.933C121.165 28.312 120.077 27.112 118.669 26.312C117.293 25.512 115.693 25.112 113.869 25.112C111.917 25.112 110.173 25.576 108.637 26.504C107.133 27.4 105.949 28.68 105.085 30.344C104.253 32.008 103.837 33.96 103.837 36.2C103.837 38.408 104.253 40.36 105.085 42.056C105.949 43.72 107.133 45.016 108.637 45.944C110.173 46.84 111.917 47.288 113.869 47.288C115.693 47.288 117.293 46.888 118.669 46.088C120.077 45.256 121.165 44.04 121.933 42.44H129.661C128.541 45.864 126.573 48.536 123.757 50.456C120.973 52.344 117.693 53.288 113.917 53.288C110.717 53.288 107.821 52.568 105.229 51.128C102.669 49.656 100.637 47.624 99.1331 45.032C97.6611 42.44 96.9251 39.496 96.9251 36.2ZM150.953 53.336C147.817 53.336 144.937 52.6 142.313 51.128C139.689 49.656 137.609 47.624 136.073 45.032C134.537 42.408 133.769 39.448 133.769 36.152C133.769 32.888 134.537 29.96 136.073 27.368C137.609 24.744 139.689 22.696 142.313 21.224C144.937 19.752 147.817 19.016 150.953 19.016C154.121 19.016 157.001 19.752 159.593 21.224C162.217 22.696 164.281 24.744 165.785 27.368C167.321 29.96 168.089 32.888 168.089 36.152C168.089 39.448 167.321 42.408 165.785 45.032C164.281 47.624 162.217 49.656 159.593 51.128C156.969 52.6 154.089 53.336 150.953 53.336ZM150.953 47.336C152.969 47.336 154.745 46.888 156.281 45.992C157.817 45.064 159.017 43.752 159.881 42.056C160.745 40.36 161.177 38.392 161.177 36.152C161.177 33.912 160.745 31.96 159.881 30.296C159.017 28.6 157.817 27.304 156.281 26.408C154.745 25.512 152.969 25.064 150.953 25.064C148.937 25.064 147.145 25.512 145.577 26.408C144.041 27.304 142.841 28.6 141.977 30.296C141.113 31.96 140.681 33.912 140.681 36.152C140.681 38.392 141.113 40.36 141.977 42.056C142.841 43.752 144.041 45.064 145.577 45.992C147.145 46.888 148.937 47.336 150.953 47.336ZM188.64 53.336C185.504 53.336 182.624 52.6 180 51.128C177.376 49.656 175.296 47.624 173.76 45.032C172.224 42.408 171.456 39.448 171.456 36.152C171.456 32.888 172.224 29.96 173.76 27.368C175.296 24.744 177.376 22.696 180 21.224C182.624 19.752 185.504 19.016 188.64 19.016C191.808 19.016 194.688 19.752 197.28 21.224C199.904 22.696 201.968 24.744 203.472 27.368C205.008 29.96 205.776 32.888 205.776 36.152C205.776 39.448 205.008 42.408 203.472 45.032C201.968 47.624 199.904 49.656 197.28 51.128C194.656 52.6 191.776 53.336 188.64 53.336ZM188.64 47.336C190.656 47.336 192.432 46.888 193.968 45.992C195.504 45.064 196.704 43.752 197.568 42.056C198.432 40.36 198.864 38.392 198.864 36.152C198.864 33.912 198.432 31.96 197.568 30.296C196.704 28.6 195.504 27.304 193.968 26.408C192.432 25.512 190.656 25.064 188.64 25.064C186.624 25.064 184.832 25.512 183.264 26.408C181.728 27.304 180.528 28.6 179.664 30.296C178.8 31.96 178.368 33.912 178.368 36.152C178.368 38.392 178.8 40.36 179.664 42.056C180.528 43.752 181.728 45.064 183.264 45.992C184.832 46.888 186.624 47.336 188.64 47.336ZM233.576 19.496V24.92H224.648V53H217.928V24.92H209V19.496H233.576ZM245.343 47.336H260.415V53H237.567V47.816L252.543 25.16H237.567V19.496H260.415V24.68L245.343 47.336Z" fill="#F38631"/>
<path fill-rule="evenodd" clip-rule="evenodd" d="M26.5076 62.5077C41.1474 62.5077 53.0153 50.6398 53.0153 36.0001C53.0153 21.3603 41.1474 9.49243 26.5076 9.49243C11.8679 9.49243 0 21.3603 0 36.0001C0 50.6398 11.8679 62.5077 26.5076 62.5077ZM27 56C38.0457 56 47 47.0457 47 36C47 24.9543 38.0457 16 27 16C15.9543 16 7 24.9543 7 36C7 47.0457 15.9543 56 27 56Z" fill="#F38631"/>
</svg>
